<?xml version="1.0" standalone="no"?>
<!DOCTYPE svg PUBLIC "-//W3C//DTD SVG 20010904//EN"
 "http://www.w3.org/TR/2001/REC-SVG-20010904/DTD/svg10.dtd">
<svg version="1.0" xmlns="http://www.w3.org/2000/svg"
 width="241.000000pt" height="241.000000pt" viewBox="0 0 241.000000 241.000000"
 preserveAspectRatio="xMidYMid meet">
<metadata>
Created by potrace 1.14, written by Peter Selinger 2001-2017
</metadata>
<g transform="translate(0.000000,241.000000) scale(0.100000,-0.100000)"
fill="#000000" stroke="none">
<path d="M1115 2344 c-176 -24 -289 -56 -410 -117 -368 -184 -593 -519 -636
-944 -33 -321 80 -652 296 -869 218 -220 502 -328 860 -328 227 0 394 35 555
115 302 151 509 491 551 903 27 260 -41 542 -180 753 -161 242 -407 407 -700
468 -74 15 -279 27 -336 19z m278 -228 c166 -27 306 -91 438 -200 l72 -59
-117 -115 -116 -114 -54 49 c-60 55 -154 104 -236 124 -72 17 -230 17 -300 0
-87 -21 -193 -77 -256 -133 l-57 -53 -85 -1 c-60 -1 -86 -5 -93 -15 -5 -8 -9
-183 -9 -390 0 -335 2 -378 16 -383 9 -3 47 -6 86 -6 l70 0 60 -55 c114 -106
255 -159 423 -158 172 0 299 48 408 155 52 51 63 57 105 60 l47 3 3 238 2 237
140 0 c125 0 141 -2 148 -17 12 -30 7 -284 -7 -348 -70 -320 -302 -547 -635
-622 -111 -25 -337 -22 -450 5 -386 96 -656 405 -698 799 -33 314 101 630 345
816 211 162 478 227 750 183z m-308 -591 l0 -70 -167 -3 -168 -2 0 -80 0 -80
150 0 150 0 0 -75 0 -75 -150 0 -150 0 0 -80 0 -80 168 -2 167 -3 3 -67 3 -68
-246 0 -245 0 0 373 c0 206 3 377 7 381 4 3 113 5 242 4 l236 -3 0 -70z m938
35 c27 -31 35 -72 18 -99 -6 -9 -30 -15 -65 -17 -62 -3 -86 11 -86 51 0 36 26
56 68 52 35 -2 37 -5 43 -42 4 -33 7 -36 14 -21 12 26 -14 68 -48 81 -44 15
-81 -11 -85 -59 -4 -51 19 -76 70 -76 27 0 38 -4 38 -15 0 -11 -12 -15 -45
-15 -106 0 -141 125 -51 182 43 26 93 18 129 -22z m-645 -32 c10 -35 38 -132
63 -215 24 -84 46 -153 49 -153 4 0 79 245 122 398 l9 32 79 0 80 0 0 -375 0
-375 -65 0 -65 0 -1 228 0 227 -30 -95 c-16 -52 -41 -132 -55 -177 l-25 -83
-49 0 -48 0 -41 133 c-76 239 -69 240 -70 -10 l-1 -223 -65 0 -65 0 0 375 0
375 80 0 79 0 19 -62z m128 -260 c-7 -33 -13 -44 -21 -36 -3 2 -8 19 -11 36
-6 28 -4 32 16 32 20 0 22 -4 16 -32z m-126 -194 l19 -54 -25 0 c-23 0 -24 2
-23 73 1 39 3 64 6 53 3 -10 13 -43 23 -72z m250 16 c0 -67 -1 -70 -24 -70
l-24 0 22 70 c11 38 22 70 24 70 1 0 2 -31 2 -70z"/>
<path d="M1923 1504 c-7 -18 11 -39 26 -30 17 11 13 46 -4 46 -9 0 -18 -7 -22
-16z"/>
</g>
</svg>
